<?xml version="1.0" encoding="UTF-8"?>
<svg version="1.1" xmlns="http://www.w3.org/2000/svg" width="650" height="650">
<path d="M0 0 C1.99896414 -0.00461892 3.99792488 -0.01097844 5.99687862 -0.01890898 C11.44410507 -0.03548924 16.89104845 -0.0274077 22.33827543 -0.0149641 C28.23067284 -0.00586934 34.12302344 -0.0199052 40.01541138 -0.03088379 C51.54054152 -0.04862651 63.06556718 -0.04484796 74.59070134 -0.03323323 C83.96134445 -0.02403952 93.3319599 -0.02287672 102.7026062 -0.02732849 C103.36996235 -0.02763403 104.0373185 -0.02793957 104.72489756 -0.02825437 C107.43435663 -0.02949986 110.14381569 -0.03077347 112.85327473 -0.03209343 C138.23634694 -0.04431155 163.61936234 -0.03326401 189.00242577 -0.01170584 C211.52158576 0.00727461 234.04065525 0.00557601 256.55981445 -0.0135498 C281.89838962 -0.03499859 307.23691464 -0.04344482 332.57549763 -0.03110075 C335.2798341 -0.02981801 337.98417059 -0.02856664 340.68850708 -0.02732849 C341.35431522 -0.02701218 342.02012335 -0.02669587 342.70610749 -0.02636998 C352.73172875 -0.02183256 362.7573121 -0.02714314 372.78292847 -0.0372467 C384.18997201 -0.04849025 395.59690552 -0.0453771 407.00393653 -0.02412373 C412.8187374 -0.01364509 418.63335512 -0.00943706 424.44815445 -0.02272034 C429.78017859 -0.03471613 435.1118513 -0.02796398 440.44384396 -0.00681013 C442.36354133 -0.00237437 444.28326892 -0.00454141 446.20294654 -0.01431328 C474.61588001 -0.1477513 497.97299711 8.72895918 518.69555664 28.50793457 C519.29754883 29.03516113 519.89954102 29.5623877 520.51977539 30.10559082 C535.99064815 44.20608325 545.83121626 67.54620023 547.06173038 88.21949577 C547.25424083 93.41699569 547.22996185 98.61224073 547.20349121 103.81237793 C547.20811013 105.81134207 547.21446965 107.81030281 547.22240019 109.80925655 C547.23898045 115.256483 547.23089891 120.70342638 547.21845531 126.15065336 C547.20936055 132.04305077 547.22339641 137.93540137 547.234375 143.82778931 C547.25211772 155.35291945 547.24833917 166.87794511 547.23672444 178.40307927 C547.22753073 187.77372238 547.22636793 197.14433783 547.2308197 206.51498413 C547.23127801 207.51601835 547.23127801 207.51601835 547.23174558 208.53727549 C547.23299107 211.24673456 547.23426468 213.95619362 547.23558464 216.66565266 C547.24780276 242.04872487 547.23675522 267.43174027 547.21519705 292.8148037 C547.1962166 315.33396369 547.1979152 337.85303318 547.21704102 360.37219238 C547.2384898 385.71076755 547.24693603 411.04929257 547.23459196 436.38787556 C547.23330922 439.09221203 547.23205785 441.79654852 547.2308197 444.50088501 C547.23050339 445.16669314 547.23018708 445.83250128 547.22986119 446.51848542 C547.22532377 456.54410668 547.23063435 466.56969003 547.24073792 476.5953064 C547.25198146 488.00234994 547.24886831 499.40928345 547.22761494 510.81631446 C547.2171363 516.63111533 547.21292827 522.44573305 547.22621155 528.26053238 C547.23820734 533.59255652 547.23145519 538.92422923 547.21030134 544.25622189 C547.20586558 546.17591926 547.20803262 548.09564685 547.21780449 550.01532447 C547.35124251 578.42825794 538.47453203 601.78537503 518.69555664 622.50793457 C518.16833008 623.10992676 517.64110352 623.71191895 517.09790039 624.33215332 C502.99740797 639.80302608 479.65729098 649.64359419 458.98399544 650.87410831 C453.78649552 651.06661876 448.59125049 651.04233978 443.39111328 651.01586914 C441.39214914 651.02048806 439.3931884 651.02684758 437.39423466 651.03477812 C431.94700821 651.05135838 426.50006484 651.04327684 421.05283785 651.03083324 C415.16044044 651.02173848 409.26808984 651.03577434 403.3757019 651.04675293 C391.85057176 651.06449565 380.3255461 651.0607171 368.80041194 651.04910237 C359.42976883 651.03990866 350.05915338 651.03874586 340.68850708 651.04319763 C340.02115093 651.04350317 339.35379479 651.04380871 338.66621573 651.04412351 C335.95675665 651.045369 333.24729759 651.04664261 330.53783855 651.04796257 C305.15476634 651.06018069 279.77175094 651.04913315 254.38868751 651.02757498 C231.86952752 651.00859453 209.35045803 651.01029313 186.83129883 651.02941895 C161.49272366 651.05086773 136.15419864 651.05931396 110.81561565 651.04696989 C108.11127918 651.04568715 105.40694269 651.04443578 102.7026062 651.04319763 C102.03679807 651.04288132 101.37098993 651.04256501 100.68500579 651.04223912 C90.65938453 651.0377017 80.63380119 651.04301228 70.60818481 651.05311584 C59.20114127 651.06435939 47.79420777 651.06124624 36.38717675 651.03999287 C30.57237588 651.02951423 24.75775816 651.0253062 18.94295883 651.03858948 C13.61093469 651.05058527 8.27926198 651.04383312 2.94726932 651.02267927 C1.02757196 651.01824351 -0.89215564 651.02041055 -2.81183326 651.03018242 C-31.22476673 651.16362044 -54.58188382 642.28690996 -75.30444336 622.50793457 C-75.90643555 621.98070801 -76.50842773 621.45348145 -77.12866211 620.91027832 C-92.59953487 606.8097859 -102.44010298 583.46966891 -103.6706171 562.79637337 C-103.86312755 557.59887345 -103.83884857 552.40362841 -103.81237793 547.20349121 C-103.81699685 545.20452707 -103.82335637 543.20556633 -103.83128691 541.20661259 C-103.84786717 535.75938614 -103.83978563 530.31244277 -103.82734203 524.86521578 C-103.81824727 518.97281837 -103.83228313 513.08046777 -103.84326172 507.18807983 C-103.86100444 495.66294969 -103.85722589 484.13792403 -103.84561116 472.61278987 C-103.83641745 463.24214676 -103.83525465 453.87153131 -103.83970642 444.50088501 C-103.84001196 443.83352886 -103.8403175 443.16617272 -103.8406323 442.47859365 C-103.84187779 439.76913458 -103.8431514 437.05967552 -103.84447136 434.35021648 C-103.85668948 408.96714427 -103.84564194 383.58412887 -103.82408377 358.20106544 C-103.80510332 335.68190545 -103.80680192 313.16283596 -103.82592773 290.64367676 C-103.84737652 265.30510159 -103.85582275 239.96657657 -103.84347868 214.62799358 C-103.84219594 211.92365711 -103.84094457 209.21932062 -103.83970642 206.51498413 C-103.83939011 205.849176 -103.8390738 205.18336786 -103.83874791 204.49738372 C-103.83421049 194.47176246 -103.83952107 184.44617912 -103.84962463 174.42056274 C-103.86086818 163.0135192 -103.85775503 151.6065857 -103.83650166 140.19955468 C-103.82602302 134.38475381 -103.82181499 128.57013609 -103.83509827 122.75533676 C-103.84709406 117.42331262 -103.84034191 112.09163991 -103.81918806 106.75964725 C-103.8147523 104.83994988 -103.81691933 102.92022229 -103.82669121 101.00054467 C-103.96012923 72.5876112 -95.08341875 49.23049411 -75.30444336 28.50793457 C-74.7772168 27.90594238 -74.24999023 27.3039502 -73.70678711 26.68371582 C-54.89189896 6.04027076 -26.66336809 -0.13572649 0 0 Z " fill="#000000" transform="translate(103.304443359375,-0.5079345703125)"/>
<path d="M0 0 C1.44998113 -0.00330259 2.89996136 -0.00702899 4.34994042 -0.01114148 C8.3260615 -0.02112473 12.3021675 -0.02487233 16.27829933 -0.02753079 C20.5702999 -0.03144481 24.86228863 -0.04102239 29.15428162 -0.04974365 C39.51564246 -0.06947753 49.87700424 -0.07957055 60.23837918 -0.08847144 C65.12352098 -0.09285955 70.0086617 -0.09822502 74.89380264 -0.10346031 C91.14317792 -0.12046982 107.39255254 -0.13496248 123.64193535 -0.14220905 C127.85578284 -0.1441188 132.06963032 -0.14603915 136.28347778 -0.147995 C137.33074701 -0.14847874 138.37801624 -0.14896248 139.45702089 -0.14946087 C156.41005726 -0.15775557 173.36302294 -0.18308428 190.31602846 -0.21557567 C207.73999477 -0.24869613 225.16392522 -0.26666233 242.58792317 -0.26985329 C252.36324457 -0.27201382 262.13846289 -0.28069523 271.91375351 -0.30631447 C280.24132786 -0.32808972 288.56877408 -0.33603847 296.89637367 -0.32634769 C301.1395369 -0.32182263 305.38243616 -0.32358369 309.62556267 -0.34310913 C342.34285376 -0.4854255 342.34285376 -0.4854255 355.87136841 4.14717102 C356.71148909 4.42743983 357.55160976 4.70770864 358.41718864 4.99647045 C385.10836486 14.78711782 407.87245178 35.40479876 419.85671997 61.19404602 C430.19373931 84.61403276 432.99478892 111.59107959 424.87136841 136.14717102 C424.49754028 137.28799133 424.12371216 138.42881165 423.73855591 139.60420227 C413.82361663 167.28067185 394.20783643 188.39798688 368.118927 201.39472961 C356.67310033 206.79733577 344.16632039 210.31924708 331.50100708 210.26069641 C330.2362994 210.26087721 330.2362994 210.26087721 328.94604206 210.26106167 C326.22711324 210.26031755 323.50825366 210.25271215 320.78933716 210.24482727 C319.10659824 210.2433563 317.42385886 210.24233654 315.74111938 210.24177551 C309.5136954 210.2365406 303.28628122 210.22257935 297.05886841 210.20967102 C283.13699341 210.18904602 269.21511841 210.16842102 254.87136841 210.14717102 C254.87136841 240.17717102 254.87136841 270.20717102 254.87136841 301.14717102 C221.85156793 301.21345059 188.83183261 301.26878769 155.81198551 301.30036701 C151.90347566 301.30411861 147.99496594 301.30800163 144.0864563 301.31196594 C143.30842375 301.31275287 142.5303912 301.3135398 141.7287819 301.31435058 C129.17201924 301.32736351 116.61529826 301.35099437 104.05856023 301.37862941 C91.15032977 301.40679864 78.24212098 301.42337147 65.33386105 301.4294365 C57.38472553 301.43352921 49.43570789 301.44640038 41.48660871 301.47092042 C35.3656534 301.48882624 29.24478581 301.49050789 23.12380791 301.48649406 C20.63154505 301.48731214 18.13927729 301.49318135 15.64704132 301.50478745 C-12.94296153 301.6312766 -38.32551853 297.73961081 -64.12863159 285.14717102 C-65.65423706 284.40660461 -65.65423706 284.40660461 -67.21066284 283.65107727 C-102.80993977 265.25203663 -128.70837034 232.032749 -140.81613159 194.20967102 C-152.75729925 155.45250853 -148.04441615 114.35921801 -129.37863159 78.58467102 C-122.60931688 66.05198263 -113.98206202 55.36347565 -104.12863159 45.14717102 C-103.30105347 44.24482727 -102.47347534 43.34248352 -101.62081909 42.41279602 C-80.38665212 19.94483953 -51.26668883 6.51380697 -21.12863159 1.14717102 C-20.18495161 0.97094617 -19.24127163 0.79472132 -18.26899529 0.61315632 C-12.22347563 -0.22829714 -6.09046046 -0.00125661 0 0 Z " fill="#FBFBFB" transform="translate(184.12863159179688,110.85282897949219)"/>
<path d="M0 0 C1.39047239 0.00028257 2.78094493 0.00012278 4.17141724 -0.0004425 C7.92077799 -0.00072776 11.67010632 0.00512491 15.41945958 0.01213145 C19.3472192 0.01841035 23.27497967 0.01897236 27.20274353 0.02015686 C34.62917926 0.02325685 42.05560016 0.03145219 49.48202938 0.04150635 C57.94156722 0.05270897 66.4011058 0.05818837 74.86064923 0.06320179 C92.25208029 0.073636 109.64349104 0.09196482 127.03491211 0.11352539 C127.03491211 19.91352539 127.03491211 39.71352539 127.03491211 60.11352539 C122.86721191 60.12287109 118.69951172 60.1322168 114.40551758 60.1418457 C100.60328018 60.17568081 86.80119889 60.23106732 72.99908257 60.29742813 C64.63455792 60.337123 56.27012606 60.36956374 47.90551758 60.38452148 C40.60915982 60.39758781 33.31300703 60.42467832 26.01676476 60.46813846 C22.15863711 60.49064217 18.3007612 60.50644281 14.4425621 60.50540924 C10.79968273 60.50465598 7.15735747 60.52286886 3.51462173 60.55469322 C1.56357925 60.56707029 -0.38755688 60.56018038 -2.33862305 60.55238342 C-19.10479137 60.74722079 -33.68394308 66.43471381 -45.93774414 77.95727539 C-59.12340806 91.98133413 -62.58675456 107.61410724 -62.27758789 126.26196289 C-62.02955507 132.79969453 -60.884518 138.2381723 -57.96508789 144.11352539 C-57.55258789 145.02618164 -57.14008789 145.93883789 -56.71508789 146.87915039 C-48.79647823 162.98632231 -35.4783557 172.17561928 -18.96508789 178.11352539 C-15.04272871 179.40000372 -11.06752897 179.28760723 -6.98364258 179.31884766 C-6.18326569 179.32874725 -5.38288879 179.33864685 -4.55825806 179.34884644 C-1.91785623 179.38038481 0.72256358 179.40518852 3.36303711 179.42993164 C5.19578514 179.45050779 7.0285285 179.47150443 8.86126709 179.49290466 C13.68135793 179.5480571 18.50149111 179.59749647 23.32165527 179.64575195 C28.24173748 179.69601685 33.16175832 179.75167687 38.08178711 179.80688477 C47.73277826 179.91438284 57.38382164 180.01534767 67.03491211 180.11352539 C67.03491211 170.21352539 67.03491211 160.31352539 67.03491211 150.11352539 C64.81530762 150.12923584 62.59570312 150.14494629 60.30883789 150.16113281 C52.94482832 150.21101993 45.58081096 150.24405042 38.21667671 150.26896191 C33.75528083 150.28456468 29.29405926 150.30570354 24.83276367 150.33984375 C20.52093689 150.37263066 16.20927695 150.39041885 11.89733505 150.39815712 C10.25883232 150.40366614 8.62033789 150.41442324 6.98190689 150.43071556 C-6.11838948 150.55570785 -16.00492669 149.99633776 -25.82836914 140.52758789 C-31.9465039 133.61532595 -33.34776205 126.2568413 -33.23852539 117.27758789 C-32.49656118 108.69200204 -28.3691023 101.76412634 -21.96508789 96.11352539 C-15.28150027 91.43268528 -9.30150117 89.98563007 -1.15640259 89.99327087 C-0.02300257 89.99189338 1.11039745 89.99051588 2.27814293 89.98909664 C3.51191484 89.99269475 4.74568676 89.99629286 6.0168457 90 C7.35922556 90.00030661 8.70160558 90.00017238 10.04398537 89.99963474 C13.62797532 89.99940965 17.21193165 90.00519153 20.7959137 90.01224518 C24.16309515 90.01795414 27.53027522 90.01820906 30.89746094 90.0189209 C40.73494909 90.02416129 50.57243103 90.0381225 60.40991211 90.05102539 C93.38928711 90.08196289 93.38928711 90.08196289 127.03491211 90.11352539 C127.03491211 139.61352539 127.03491211 189.11352539 127.03491211 240.11352539 C92.16834961 240.20633789 92.16834961 240.20633789 56.59741211 240.30102539 C49.28657471 240.3283374 41.9757373 240.35564941 34.44335938 240.38378906 C25.44299316 240.39733887 25.44299316 240.39733887 21.21543884 240.39985657 C18.29361487 240.40262593 15.37195821 240.41376449 12.45018005 240.43025208 C-19.16924467 240.60079237 -19.16924467 240.60079237 -32.96508789 237.11352539 C-34.09365707 236.83401535 -35.22222626 236.55450531 -36.38499451 236.26652527 C-65.41196522 228.62447247 -90.86972713 208.40037277 -106.26733398 182.86035156 C-122.95617475 154.00374072 -128.02419563 119.80399959 -119.60668945 87.36791992 C-114.99865607 71.17667934 -106.64855737 56.05258827 -95.96508789 43.11352539 C-95.1671582 42.13899414 -94.36922852 41.16446289 -93.54711914 40.16040039 C-69.65679439 12.54737753 -35.96637129 -0.10054379 0 0 Z " fill="#000000" transform="translate(190.965087890625,140.886474609375)"/>
<path d="M0 0 C21.51503776 -0.06786859 43.02998809 -0.1230698 64.54510593 -0.15543652 C74.53621328 -0.17086817 84.52724912 -0.19188645 94.51831055 -0.22631836 C103.23226391 -0.25633455 111.94616544 -0.27560187 120.66016906 -0.28226548 C125.26895471 -0.28615715 129.87759215 -0.29522485 134.48633003 -0.31719017 C138.83572241 -0.33774896 143.18490737 -0.34379518 147.53434372 -0.33932304 C149.11964869 -0.34013966 150.70496154 -0.34598873 152.29022408 -0.35761642 C172.96206163 -0.50163825 190.55870909 3.76085904 207 17 C207.94939453 17.70382813 207.94939453 17.70382813 208.91796875 18.421875 C218.24983362 25.68236483 224.27855167 36.36912603 229 47 C229.31710937 47.67289063 229.63421875 48.34578125 229.9609375 49.0390625 C237.20344273 65.89043606 235.39928961 86.26397553 229 103 C221.16402883 121.56025688 207.38246496 136.53542509 188.64453125 144.41015625 C177.76808336 148.47844592 167.51871126 150.31377127 155.92895508 150.22705078 C154.36109756 150.22748886 154.36109756 150.22748886 152.76156616 150.22793579 C149.34746654 150.22655565 145.93359219 150.21105699 142.51953125 150.1953125 C140.13628763 150.19157769 137.75304246 150.18873293 135.36979675 150.18673706 C129.12767218 150.17913751 122.88564216 150.15952088 116.64355469 150.1373291 C109.13770247 150.11317377 101.63181846 150.10407217 94.12593842 150.09242249 C82.75056005 150.07309417 71.37538875 150.0347458 60 150 C60 179.7 60 209.4 60 240 C40.2 240 20.4 240 0 240 C0 190.5 0 141 0 90 C11.69695312 89.96261719 23.39390625 89.92523438 35.4453125 89.88671875 C42.84636611 89.85645031 50.24740394 89.8254321 57.6484375 89.79101562 C69.40102725 89.73650343 81.15357311 89.68509171 92.90625 89.65356445 C101.46526778 89.63059029 110.02417067 89.59719874 118.58309734 89.55129844 C123.11497699 89.5273584 127.64674279 89.50863473 132.17868423 89.50238609 C136.44522874 89.49633878 140.71148194 89.47635176 144.97791862 89.44572449 C146.54278351 89.43693859 148.10768645 89.43322283 149.672575 89.43499184 C151.81217335 89.43664669 153.95088587 89.4199288 156.09036255 89.39872742 C157.28684984 89.39411845 158.48333714 89.38950949 159.71608162 89.38476086 C164.27972545 88.85006075 167.70698411 87.42677616 170.8125 84 C173.46456786 79.5333594 173.61296896 75.05051886 173 70 C170.5762844 64.96612913 168.08584082 63.10789904 163 61 C159.66695571 60.54704104 159.66695571 60.54704104 156.09036255 60.60127258 C155.41961697 60.59462576 154.74887138 60.58797893 154.05780017 60.58113068 C151.82369557 60.562567 149.59012966 60.56510136 147.35595703 60.56762695 C145.74917346 60.5586057 144.14239677 60.54827759 142.53562927 60.53674316 C138.18279937 60.50918956 133.83010012 60.49989088 129.47719431 60.49388909 C124.92475626 60.48450117 120.37241564 60.45829742 115.82003784 60.43388367 C107.20355215 60.39022653 98.58708538 60.36167473 89.97052276 60.33856028 C80.15914783 60.31150442 70.34787093 60.26759313 60.53656602 60.22227156 C40.35774959 60.12943646 20.1789427 60.05997551 0 60 C0 40.2 0 20.4 0 0 Z " fill="#000000" transform="translate(349,141)"/>
<path d="M0 0 C6.44122145 4.49190443 10.41682951 9.68854681 12.5090332 17.23779297 C13.63596908 23.59717286 13.51889631 30.02086479 13.46923828 36.46240234 C13.45315723 38.94424402 13.46914903 41.42445775 13.48828125 43.90625 C13.50586651 55.74269003 13.06729141 65.66650019 4.34375 74.53125 C-4.03729431 81.62623751 -14.3297809 81.37417754 -24.81396484 80.68554688 C-29.06816081 80.20858814 -32.41158625 78.83654783 -35.921875 76.44921875 C-36.829375 75.89234375 -37.736875 75.33546875 -38.671875 74.76171875 C-43.48613029 69.81373414 -47.01807299 63.26015633 -47.08300781 56.28833008 C-47.09741913 55.03606377 -47.09741913 55.03606377 -47.11212158 53.75849915 C-47.11637146 52.85850693 -47.12062134 51.95851471 -47.125 51.03125 C-47.13070007 50.1000383 -47.13640015 49.1688266 -47.14227295 48.20939636 C-47.15172162 46.23653295 -47.1582564 44.26365376 -47.16210938 42.29077148 C-47.17178199 39.29056735 -47.20279301 36.29105803 -47.234375 33.29101562 C-47.24090871 31.3710978 -47.24615773 29.45117509 -47.25 27.53125 C-47.2623468 26.64137894 -47.2746936 25.75150787 -47.28741455 24.83467102 C-47.25857549 16.66078237 -45.26989075 10.1181085 -39.671875 3.98828125 C-29.94616475 -4.56513357 -11.39097956 -5.67557548 0 0 Z " fill="#F9F9F9" transform="translate(461.921875,441.55078125)"/>
<path d="M0 0 C5.89875 -0.0825 11.7975 -0.165 17.875 -0.25 C20.63593018 -0.30462402 20.63593018 -0.30462402 23.45263672 -0.36035156 C33.80345799 -0.47950824 41.42048726 0.42068994 50.3125 6.125 C60.80193792 17.34625917 60.582584 32.39322235 60.10058594 46.84423828 C59.60582832 57.44790273 56.20082234 66.55028454 49.6875 75 C39.89883742 82.28458611 30.14831643 81.47888292 18.4375 81.25 C16.64780641 81.22990747 14.85809108 81.21166156 13.06835938 81.1953125 C8.71169722 81.15152721 4.35609106 81.08265224 0 81 C0 76.05 0 71.1 0 66 C2.01222656 65.95101562 4.02445312 65.90203125 6.09765625 65.8515625 C8.06699424 65.79589217 10.03633094 65.74015585 12.00561523 65.68261719 C13.36425263 65.64455921 14.72298285 65.60966779 16.08178711 65.578125 C18.04562919 65.53196786 20.00915963 65.47311503 21.97265625 65.4140625 C23.15093994 65.3826416 24.32922363 65.3512207 25.54321289 65.31884766 C29.26380591 64.97566703 32.47831564 64.24396594 36 63 C41.16001417 56.46398206 40.21646592 48.67242688 40.25 40.75 C40.270625 39.54730469 40.29125 38.34460938 40.3125 37.10546875 C40.34206671 30.37165117 40.09425071 25.04391026 37 19 C32.36021682 15.58382361 32.36021682 15.58382361 18 15 C18 28.2 18 41.4 18 55 C12.06 55 6.12 55 0 55 C0 36.85 0 18.7 0 0 Z " fill="#F9F9F9" transform="translate(108,440)"/>
<path d="M0 0 C4.82830395 3.7262926 8.13684983 7.71191796 10.01953125 13.55859375 C10.26853267 17.24879483 10.10880162 20.85387325 10.01953125 24.55859375 C3.74953125 24.55859375 -2.52046875 24.55859375 -8.98046875 24.55859375 C-9.43619792 22.01953125 -9.89192708 19.48046875 -10.34765625 16.94140625 C-10.81091578 14.39353387 -10.81091578 14.39353387 -12.98046875 12.55859375 C-17.31690476 12.24321659 -19.30700104 12.10961528 -22.98046875 14.55859375 C-23.72559013 19.8862828 -23.72559013 19.8862828 -21.59375 24.546875 C-16.95751212 28.11587725 -11.37961554 29.85204783 -5.953125 31.93945312 C1.60644776 34.99671258 7.73274916 38.77111091 12.01953125 45.87109375 C14.07471352 53.44957837 13.6236377 60.03408072 10.41015625 67.23046875 C6.40750483 73.93153686 0.40406037 77.54665602 -6.98046875 79.55859375 C-9.95293716 79.99168855 -12.85424747 80.08400057 -15.85546875 80.05859375 C-16.6434082 80.05287354 -17.43134766 80.04715332 -18.24316406 80.04125977 C-26.58386626 79.78608995 -32.62618214 77.36042538 -38.41796875 71.24609375 C-43.40904726 64.71386069 -43.98046875 59.87078659 -43.98046875 51.55859375 C-37.71046875 51.55859375 -31.44046875 51.55859375 -24.98046875 51.55859375 C-24.32046875 54.52859375 -23.66046875 57.49859375 -22.98046875 60.55859375 C-20.63809888 62.90096362 -19.25372333 63.55126215 -15.9453125 63.5703125 C-12.51472243 63.25278057 -10.46323847 63.04136347 -7.98046875 60.55859375 C-7.3108805 56.45512289 -7.3108805 56.45512289 -7.98046875 52.55859375 C-12.05367313 49.27155496 -16.49104989 47.41253156 -21.35546875 45.62109375 C-30.92161411 41.93084425 -37.67092736 38.586687 -42.73046875 29.37109375 C-45.01730163 23.59118647 -44.75270074 17.2513528 -42.91796875 11.37109375 C-40.05267459 4.77425371 -34.47545237 -0.15489899 -27.828125 -2.77734375 C-18.62256744 -4.92404442 -8.25320036 -4.96316819 0 0 Z " fill="#F8F8F8" transform="translate(273.98046875,442.44140625)"/>
<path d="M0 0 C5.94 0 11.88 0 18 0 C18.33 9.9 18.66 19.8 19 30 C23.47314351 21.99815755 23.47314351 21.99815755 27.94458008 13.99536133 C28.50556396 12.9927124 29.06654785 11.99006348 29.64453125 10.95703125 C30.50075073 9.42526245 30.50075073 9.42526245 31.37426758 7.86254883 C31.91075928 6.91790771 32.44725098 5.9732666 33 5 C33.47244141 4.06220703 33.94488281 3.12441406 34.43164062 2.15820312 C36 0 36 0 38.0847168 -0.56762695 C39.25514526 -0.52835083 39.25514526 -0.52835083 40.44921875 -0.48828125 C41.29677734 -0.47216797 42.14433594 -0.45605469 43.01757812 -0.43945312 C44.33918945 -0.37661133 44.33918945 -0.37661133 45.6875 -0.3125 C46.58017578 -0.28994141 47.47285156 -0.26738281 48.39257812 -0.24414062 C50.59674272 -0.18520574 52.79752672 -0.10300818 55 0 C53.48705617 4.14229575 51.44442424 7.84787098 49.19140625 11.62109375 C48.64032448 12.55466454 48.64032448 12.55466454 48.07810974 13.50709534 C46.90954695 15.48587571 45.7363926 17.46187759 44.5625 19.4375 C43.39270538 21.4098534 42.22398103 23.38281771 41.05760193 25.35719299 C40.33401315 26.58169817 39.60843621 27.80503152 38.88050842 29.02696228 C37.905097 30.67571891 36.95208952 32.33766687 36 34 C35.36932617 35.02053467 34.73865234 36.04106934 34.08886719 37.0925293 C32.67413213 39.94195822 32.67413213 39.94195822 33.87768555 42.63037109 C34.4581665 43.50258301 35.03864746 44.37479492 35.63671875 45.2734375 C36.27279053 46.25626709 36.9088623 47.23909668 37.56420898 48.25170898 C38.26489502 49.28239502 38.96558105 50.31308105 39.6875 51.375 C41.08854465 53.5195293 42.48958631 55.66406056 43.890625 57.80859375 C44.58865234 58.85772949 45.28667969 59.90686523 46.00585938 60.98779297 C48.72337779 65.09268306 51.33760617 69.2575467 53.9375 73.4375 C54.35539795 74.09862793 54.7732959 74.75975586 55.20385742 75.44091797 C58 79.88421868 58 79.88421868 58 81 C51.02574868 82.86911168 43.74559659 84.10520724 37 81 C29.39970144 73.20201797 24.66159265 62.72551503 20 53 C19.67 52.34 19.34 51.68 19 51 C18.67 60.9 18.34 70.8 18 81 C12.06 81 6.12 81 0 81 C0 54.27 0 27.54 0 0 Z " fill="#F9F9F9" transform="translate(294,440)"/>
<path d="M0 0 C16.17 0 32.34 0 49 0 C48.34 4.95 47.68 9.9 47 15 C37.43 15 27.86 15 18 15 C18 20.94 18 26.88 18 33 C27.24 33 36.48 33 46 33 C46 37.95 46 42.9 46 48 C36.76 48 27.52 48 18 48 C18.144375 50.26875 18.28875 52.5375 18.4375 54.875 C18.55931641 56.78925781 18.55931641 56.78925781 18.68359375 58.7421875 C18.79206027 61.88300152 18.79206027 61.88300152 20 64 C23.17509982 65.05836661 25.64282383 65.20243789 28.98046875 65.31640625 C30.14384766 65.35830078 31.30722656 65.40019531 32.50585938 65.44335938 C33.72080078 65.48267578 34.93574219 65.52199219 36.1875 65.5625 C37.41404297 65.60568359 38.64058594 65.64886719 39.90429688 65.69335938 C42.93606192 65.79953014 45.968016 65.90027764 49 66 C49 70.95 49 75.9 49 81 C43.98294279 81.07442006 38.96621028 81.12872908 33.94873047 81.16479492 C32.24359537 81.17983738 30.53849868 81.20027653 28.83349609 81.22631836 C26.37587988 81.26290284 23.91877731 81.27977173 21.4609375 81.29296875 C20.70444916 81.30845261 19.94796082 81.32393646 19.16854858 81.33988953 C14.37206542 81.34139842 11.16974846 80.61485519 7 78 C1.37922208 72.25147713 -0.25746502 67.19837043 -0.22705078 59.26025391 C-0.22748886 58.29333618 -0.22748886 58.29333618 -0.22793579 57.30688477 C-0.22655315 55.19663577 -0.21104311 53.08674908 -0.1953125 50.9765625 C-0.19157856 49.50540357 -0.18873339 48.03424215 -0.18673706 46.56307983 C-0.17913056 42.70628902 -0.159508 38.84965079 -0.1373291 34.99291992 C-0.11319264 30.3572861 -0.10407547 25.72160103 -0.09242249 21.08592224 C-0.07308159 14.05717564 -0.03473853 7.02876329 0 0 Z " fill="#FAFAFA" transform="translate(176,440)"/>
<path d="M0 0 C4.92650633 -0.09251655 9.84992394 -0.1719364 14.77661133 -0.21972656 C16.44761442 -0.239675 18.11854924 -0.26684401 19.78930664 -0.30175781 C41.40042848 -0.74161303 41.40042848 -0.74161303 49.18457031 5.84985352 C54.98516683 11.72143635 57.08910531 18.31809083 57.375 26.4375 C57.1574472 33.1910957 55.91195345 39.84904755 51.8125 45.375 C46.43690324 50.39222365 40.26166684 52.95678312 32.92578125 53.28125 C31.80139648 53.33732422 31.80139648 53.33732422 30.65429688 53.39453125 C29.08140384 53.46537047 27.50848665 53.5356752 25.93554688 53.60546875 C22.15638688 53.44119539 22.15638688 53.44119539 19 55 C18.84193469 56.92478813 18.748865 58.8549921 18.68359375 60.78515625 C18.64169922 61.95498047 18.59980469 63.12480469 18.55664062 64.33007812 C18.51732422 65.56177734 18.47800781 66.79347656 18.4375 68.0625 C18.39431641 69.29806641 18.35113281 70.53363281 18.30664062 71.80664062 C18.20015889 74.87094841 18.09953935 77.93545885 18 81 C12.06 81 6.12 81 0 81 C-0.06901579 76.39127917 -0.12870199 71.7843637 -0.16479492 67.17553711 C-0.17984622 65.60906893 -0.20029207 64.04264264 -0.22631836 62.47631836 C-0.26286433 60.21978394 -0.27976261 57.96380847 -0.29296875 55.70703125 C-0.31619453 54.66298882 -0.31619453 54.66298882 -0.33988953 53.59785461 C-0.34185372 47.87404977 1.29663416 44.87048852 5.0703125 40.7265625 C9.285032 38.24268781 13.06429821 38.40317395 17.875 38.375 C23.90336487 38.28595473 29.33047805 38.20563648 35 36 C37.36290944 32.45563584 37.32763406 30.7060955 37.375 26.5 C37.41753906 24.78296875 37.41753906 24.78296875 37.4609375 23.03125 C37.26875015 19.99701829 37.26875015 19.99701829 35.4609375 18.16796875 C32.144583 16.59401638 28.85773953 16.18418583 25.25 15.8125 C24.20392578 15.6897168 24.20392578 15.6897168 23.13671875 15.56445312 C21.42573224 15.36522867 19.71299963 15.18110071 18 15 C18 19.62 18 24.24 18 29 C12.06 29 6.12 29 0 29 C0 19.43 0 9.86 0 0 Z " fill="#F8F8F8" transform="translate(483,440)"/>
<path d="M0 0 C19.47 0 38.94 0 59 0 C58.4980785 5.019215 57.98925855 10.05370725 57 15 C50.73 15 44.46 15 38 15 C38 36.78 38 58.56 38 81 C32.06 81 26.12 81 20 81 C20 59.22 20 37.44 20 15 C13.4 15 6.8 15 0 15 C0 10.05 0 5.1 0 0 Z " fill="#FAFAFA" transform="translate(353,440)"/>
<path d="M0 0 C3.36415167 2.42531864 4.50492691 5.07821507 5.6875 8.9375 C6.05981445 12.55859375 6.05981445 12.55859375 6.05078125 16.375 C6.05127975 17.05876709 6.05177826 17.74253418 6.05229187 18.44702148 C6.0499675 19.88235402 6.04033661 21.3176919 6.02368164 22.75292969 C6.00005944 24.93201706 6.00313674 27.10987914 6.00976562 29.2890625 C5.94563449 45.42846167 5.94563449 45.42846167 2 49.8125 C-2.485906 51.99483265 -6.20725006 52.15854999 -11.0625 51.1875 C-14.02568881 50.047812 -15.49170569 49.46638099 -17.3125 46.9375 C-19.30451931 40.96144207 -18.61989682 34.077249 -18.66259766 27.80541992 C-18.67915055 26.02371147 -18.70643208 24.24206924 -18.74462891 22.46069336 C-18.79955714 19.8836037 -18.82129393 17.30806588 -18.8359375 14.73046875 C-18.85860687 13.93964401 -18.88127625 13.14881927 -18.90463257 12.33403015 C-18.88903749 8.22654518 -18.53305257 5.69863818 -15.90478516 2.45043945 C-11.12507095 -2.18297534 -6.0901911 -1.95345752 0 0 Z " fill="#020202" transform="translate(451.3125,455.0625)"/>
</svg>
